<mxfile host="app.diagrams.net" modified="2023-10-08T08:50:46.010Z" agent="Mozilla/5.0 (Windows NT 10.0; Win64; x64) AppleWebKit/537.36 (KHTML, like Gecko) Chrome/117.0.0.0 Safari/537.36 Edg/117.0.2045.47" etag="KDVcjFOmkoKwkBc1SYNl" version="22.0.4" type="device">
  <diagram name="Page-1" id="M6_RjF3h0V84UjnlyxBr">
    <mxGraphModel dx="1389" dy="774" grid="1" gridSize="10" guides="1" tooltips="1" connect="1" arrows="1" fold="1" page="1" pageScale="1" pageWidth="850" pageHeight="1100" math="0" shadow="0">
      <root>
        <mxCell id="0" />
        <mxCell id="1" parent="0" />
        <mxCell id="7AAukg8NVa6nufPKahTa-1" value="" style="rounded=0;whiteSpace=wrap;html=1;fillColor=none;" parent="1" vertex="1">
          <mxGeometry x="70" y="60" width="610" height="820" as="geometry" />
        </mxCell>
        <mxCell id="7AAukg8NVa6nufPKahTa-3" value="&lt;font style=&quot;font-size: 14px;&quot;&gt;&lt;b&gt;Клиент&lt;/b&gt;&lt;/font&gt;" style="rounded=0;whiteSpace=wrap;html=1;" parent="1" vertex="1">
          <mxGeometry x="70" y="60" width="390" height="40" as="geometry" />
        </mxCell>
        <mxCell id="7AAukg8NVa6nufPKahTa-4" value="&lt;b&gt;&lt;font style=&quot;font-size: 14px;&quot;&gt;Сервер с БД&lt;/font&gt;&lt;/b&gt;" style="rounded=0;whiteSpace=wrap;html=1;" parent="1" vertex="1">
          <mxGeometry x="460" y="60" width="220" height="40" as="geometry" />
        </mxCell>
        <mxCell id="7AAukg8NVa6nufPKahTa-5" value="" style="endArrow=none;html=1;rounded=0;entryX=0;entryY=1;entryDx=0;entryDy=0;exitX=0.637;exitY=0.999;exitDx=0;exitDy=0;exitPerimeter=0;" parent="1" source="7AAukg8NVa6nufPKahTa-1" target="7AAukg8NVa6nufPKahTa-4" edge="1">
          <mxGeometry width="50" height="50" relative="1" as="geometry">
            <mxPoint x="390" y="290" as="sourcePoint" />
            <mxPoint x="440" y="240" as="targetPoint" />
          </mxGeometry>
        </mxCell>
        <mxCell id="tKvllHDfNdYFgALGTKCt-2" style="edgeStyle=orthogonalEdgeStyle;rounded=0;orthogonalLoop=1;jettySize=auto;html=1;exitX=1;exitY=0.5;exitDx=0;exitDy=0;entryX=0;entryY=0.5;entryDx=0;entryDy=0;" edge="1" parent="1" source="7AAukg8NVa6nufPKahTa-7" target="tKvllHDfNdYFgALGTKCt-1">
          <mxGeometry relative="1" as="geometry" />
        </mxCell>
        <mxCell id="7AAukg8NVa6nufPKahTa-7" value="" style="ellipse;whiteSpace=wrap;html=1;aspect=fixed;fillColor=#000000;" parent="1" vertex="1">
          <mxGeometry x="110" y="155" width="40" height="40" as="geometry" />
        </mxCell>
        <mxCell id="tKvllHDfNdYFgALGTKCt-5" style="edgeStyle=orthogonalEdgeStyle;rounded=0;orthogonalLoop=1;jettySize=auto;html=1;entryX=0;entryY=0.5;entryDx=0;entryDy=0;" edge="1" parent="1" source="tKvllHDfNdYFgALGTKCt-1" target="tKvllHDfNdYFgALGTKCt-3">
          <mxGeometry relative="1" as="geometry" />
        </mxCell>
        <mxCell id="tKvllHDfNdYFgALGTKCt-1" value="Авторизация" style="rounded=1;whiteSpace=wrap;html=1;arcSize=50;" vertex="1" parent="1">
          <mxGeometry x="240" y="155" width="120" height="40" as="geometry" />
        </mxCell>
        <mxCell id="tKvllHDfNdYFgALGTKCt-6" style="edgeStyle=orthogonalEdgeStyle;rounded=0;orthogonalLoop=1;jettySize=auto;html=1;exitX=0.5;exitY=0;exitDx=0;exitDy=0;entryX=0.5;entryY=0;entryDx=0;entryDy=0;" edge="1" parent="1" source="tKvllHDfNdYFgALGTKCt-3" target="tKvllHDfNdYFgALGTKCt-1">
          <mxGeometry relative="1" as="geometry">
            <Array as="points">
              <mxPoint x="550" y="130" />
              <mxPoint x="300" y="130" />
            </Array>
          </mxGeometry>
        </mxCell>
        <mxCell id="tKvllHDfNdYFgALGTKCt-8" value="Нет" style="edgeLabel;html=1;align=center;verticalAlign=middle;resizable=0;points=[];" vertex="1" connectable="0" parent="tKvllHDfNdYFgALGTKCt-6">
          <mxGeometry x="0.031" y="1" relative="1" as="geometry">
            <mxPoint as="offset" />
          </mxGeometry>
        </mxCell>
        <mxCell id="tKvllHDfNdYFgALGTKCt-10" style="edgeStyle=orthogonalEdgeStyle;rounded=0;orthogonalLoop=1;jettySize=auto;html=1;exitX=0.5;exitY=1;exitDx=0;exitDy=0;entryX=0.5;entryY=0;entryDx=0;entryDy=0;" edge="1" parent="1" source="tKvllHDfNdYFgALGTKCt-3" target="tKvllHDfNdYFgALGTKCt-9">
          <mxGeometry relative="1" as="geometry" />
        </mxCell>
        <mxCell id="tKvllHDfNdYFgALGTKCt-3" value="" style="rhombus;whiteSpace=wrap;html=1;" vertex="1" parent="1">
          <mxGeometry x="510" y="150" width="80" height="50" as="geometry" />
        </mxCell>
        <mxCell id="tKvllHDfNdYFgALGTKCt-7" value="Успех" style="text;html=1;strokeColor=none;fillColor=none;align=center;verticalAlign=middle;whiteSpace=wrap;rounded=0;" vertex="1" parent="1">
          <mxGeometry x="560" y="140" width="60" height="30" as="geometry" />
        </mxCell>
        <mxCell id="tKvllHDfNdYFgALGTKCt-12" style="edgeStyle=orthogonalEdgeStyle;rounded=0;orthogonalLoop=1;jettySize=auto;html=1;exitX=1;exitY=0.5;exitDx=0;exitDy=0;entryX=0;entryY=0.5;entryDx=0;entryDy=0;" edge="1" parent="1" source="tKvllHDfNdYFgALGTKCt-9" target="tKvllHDfNdYFgALGTKCt-11">
          <mxGeometry relative="1" as="geometry" />
        </mxCell>
        <mxCell id="tKvllHDfNdYFgALGTKCt-9" value="Список лэйаутов" style="rounded=1;whiteSpace=wrap;html=1;arcSize=50;" vertex="1" parent="1">
          <mxGeometry x="120" y="255" width="120" height="40" as="geometry" />
        </mxCell>
        <mxCell id="tKvllHDfNdYFgALGTKCt-18" style="edgeStyle=orthogonalEdgeStyle;rounded=0;orthogonalLoop=1;jettySize=auto;html=1;entryX=0.5;entryY=0;entryDx=0;entryDy=0;" edge="1" parent="1" source="tKvllHDfNdYFgALGTKCt-11" target="tKvllHDfNdYFgALGTKCt-14">
          <mxGeometry relative="1" as="geometry">
            <Array as="points">
              <mxPoint x="560" y="310" />
              <mxPoint x="180" y="310" />
            </Array>
          </mxGeometry>
        </mxCell>
        <mxCell id="tKvllHDfNdYFgALGTKCt-11" value="Выборка данных" style="rounded=1;whiteSpace=wrap;html=1;arcSize=50;" vertex="1" parent="1">
          <mxGeometry x="480" y="255" width="160" height="40" as="geometry" />
        </mxCell>
        <mxCell id="tKvllHDfNdYFgALGTKCt-20" style="edgeStyle=orthogonalEdgeStyle;rounded=0;orthogonalLoop=1;jettySize=auto;html=1;entryX=0;entryY=0.5;entryDx=0;entryDy=0;" edge="1" parent="1" source="tKvllHDfNdYFgALGTKCt-14" target="tKvllHDfNdYFgALGTKCt-19">
          <mxGeometry relative="1" as="geometry" />
        </mxCell>
        <mxCell id="tKvllHDfNdYFgALGTKCt-14" value="Выбрать лэйаут" style="rounded=1;whiteSpace=wrap;html=1;arcSize=50;" vertex="1" parent="1">
          <mxGeometry x="120" y="330" width="120" height="40" as="geometry" />
        </mxCell>
        <mxCell id="tKvllHDfNdYFgALGTKCt-24" style="edgeStyle=orthogonalEdgeStyle;rounded=0;orthogonalLoop=1;jettySize=auto;html=1;entryX=0.5;entryY=0;entryDx=0;entryDy=0;" edge="1" parent="1" source="tKvllHDfNdYFgALGTKCt-19" target="tKvllHDfNdYFgALGTKCt-22">
          <mxGeometry relative="1" as="geometry">
            <Array as="points">
              <mxPoint x="560" y="390" />
              <mxPoint x="180" y="390" />
            </Array>
          </mxGeometry>
        </mxCell>
        <mxCell id="tKvllHDfNdYFgALGTKCt-19" value="Загрузка сохранённой конфигурации, моделей, коллекций" style="rounded=1;whiteSpace=wrap;html=1;arcSize=50;" vertex="1" parent="1">
          <mxGeometry x="480" y="320" width="160" height="60" as="geometry" />
        </mxCell>
        <mxCell id="tKvllHDfNdYFgALGTKCt-25" style="edgeStyle=orthogonalEdgeStyle;rounded=0;orthogonalLoop=1;jettySize=auto;html=1;exitX=0.5;exitY=1;exitDx=0;exitDy=0;entryX=0;entryY=0.5;entryDx=0;entryDy=0;" edge="1" parent="1" source="tKvllHDfNdYFgALGTKCt-22" target="tKvllHDfNdYFgALGTKCt-23">
          <mxGeometry relative="1" as="geometry" />
        </mxCell>
        <mxCell id="tKvllHDfNdYFgALGTKCt-22" value="Создание/редактирование стены" style="rounded=1;whiteSpace=wrap;html=1;arcSize=50;" vertex="1" parent="1">
          <mxGeometry x="110" y="420" width="140" height="50" as="geometry" />
        </mxCell>
        <mxCell id="tKvllHDfNdYFgALGTKCt-27" style="edgeStyle=orthogonalEdgeStyle;rounded=0;orthogonalLoop=1;jettySize=auto;html=1;entryX=1;entryY=0.5;entryDx=0;entryDy=0;" edge="1" parent="1" source="tKvllHDfNdYFgALGTKCt-23" target="tKvllHDfNdYFgALGTKCt-22">
          <mxGeometry relative="1" as="geometry">
            <Array as="points">
              <mxPoint x="350" y="410" />
              <mxPoint x="270" y="410" />
              <mxPoint x="270" y="445" />
            </Array>
          </mxGeometry>
        </mxCell>
        <mxCell id="tKvllHDfNdYFgALGTKCt-29" value="Да" style="edgeLabel;html=1;align=center;verticalAlign=middle;resizable=0;points=[];" vertex="1" connectable="0" parent="tKvllHDfNdYFgALGTKCt-27">
          <mxGeometry x="-0.2809" y="-1" relative="1" as="geometry">
            <mxPoint as="offset" />
          </mxGeometry>
        </mxCell>
        <mxCell id="tKvllHDfNdYFgALGTKCt-31" style="edgeStyle=orthogonalEdgeStyle;rounded=0;orthogonalLoop=1;jettySize=auto;html=1;entryX=0;entryY=0.5;entryDx=0;entryDy=0;exitX=0.5;exitY=1;exitDx=0;exitDy=0;" edge="1" parent="1" source="tKvllHDfNdYFgALGTKCt-23" target="tKvllHDfNdYFgALGTKCt-30">
          <mxGeometry relative="1" as="geometry">
            <Array as="points">
              <mxPoint x="350" y="480" />
            </Array>
          </mxGeometry>
        </mxCell>
        <mxCell id="tKvllHDfNdYFgALGTKCt-32" value="Нет" style="edgeLabel;html=1;align=center;verticalAlign=middle;resizable=0;points=[];" vertex="1" connectable="0" parent="tKvllHDfNdYFgALGTKCt-31">
          <mxGeometry x="-0.0124" y="-2" relative="1" as="geometry">
            <mxPoint as="offset" />
          </mxGeometry>
        </mxCell>
        <mxCell id="tKvllHDfNdYFgALGTKCt-23" value="" style="rhombus;whiteSpace=wrap;html=1;" vertex="1" parent="1">
          <mxGeometry x="310" y="420" width="80" height="50" as="geometry" />
        </mxCell>
        <mxCell id="tKvllHDfNdYFgALGTKCt-28" value="Нарисовать ещё одну" style="text;html=1;strokeColor=none;fillColor=none;align=center;verticalAlign=middle;whiteSpace=wrap;rounded=0;" vertex="1" parent="1">
          <mxGeometry x="350" y="400" width="90" height="30" as="geometry" />
        </mxCell>
        <mxCell id="tKvllHDfNdYFgALGTKCt-36" style="edgeStyle=orthogonalEdgeStyle;rounded=0;orthogonalLoop=1;jettySize=auto;html=1;exitX=0.5;exitY=1;exitDx=0;exitDy=0;entryX=0.5;entryY=0;entryDx=0;entryDy=0;" edge="1" parent="1" source="tKvllHDfNdYFgALGTKCt-30" target="tKvllHDfNdYFgALGTKCt-33">
          <mxGeometry relative="1" as="geometry" />
        </mxCell>
        <mxCell id="tKvllHDfNdYFgALGTKCt-30" value="Сохранение конфигурации стен" style="rounded=1;whiteSpace=wrap;html=1;arcSize=50;" vertex="1" parent="1">
          <mxGeometry x="480" y="460" width="160" height="40" as="geometry" />
        </mxCell>
        <mxCell id="tKvllHDfNdYFgALGTKCt-37" style="edgeStyle=orthogonalEdgeStyle;rounded=0;orthogonalLoop=1;jettySize=auto;html=1;exitX=0.5;exitY=1;exitDx=0;exitDy=0;entryX=0;entryY=0.5;entryDx=0;entryDy=0;" edge="1" parent="1" source="tKvllHDfNdYFgALGTKCt-33" target="tKvllHDfNdYFgALGTKCt-34">
          <mxGeometry relative="1" as="geometry" />
        </mxCell>
        <mxCell id="tKvllHDfNdYFgALGTKCt-33" value="Расположение объекта в помещении" style="rounded=1;whiteSpace=wrap;html=1;arcSize=50;" vertex="1" parent="1">
          <mxGeometry x="110" y="540" width="140" height="50" as="geometry" />
        </mxCell>
        <mxCell id="tKvllHDfNdYFgALGTKCt-35" style="edgeStyle=orthogonalEdgeStyle;rounded=0;orthogonalLoop=1;jettySize=auto;html=1;entryX=1;entryY=0.5;entryDx=0;entryDy=0;exitX=0.5;exitY=0;exitDx=0;exitDy=0;" edge="1" parent="1" source="tKvllHDfNdYFgALGTKCt-34" target="tKvllHDfNdYFgALGTKCt-33">
          <mxGeometry relative="1" as="geometry">
            <Array as="points">
              <mxPoint x="350" y="550" />
              <mxPoint x="280" y="550" />
              <mxPoint x="280" y="565" />
            </Array>
          </mxGeometry>
        </mxCell>
        <mxCell id="tKvllHDfNdYFgALGTKCt-38" value="Да" style="edgeLabel;html=1;align=center;verticalAlign=middle;resizable=0;points=[];" vertex="1" connectable="0" parent="tKvllHDfNdYFgALGTKCt-35">
          <mxGeometry x="-0.2138" y="1" relative="1" as="geometry">
            <mxPoint x="-1" y="-1" as="offset" />
          </mxGeometry>
        </mxCell>
        <mxCell id="tKvllHDfNdYFgALGTKCt-41" style="edgeStyle=orthogonalEdgeStyle;rounded=0;orthogonalLoop=1;jettySize=auto;html=1;exitX=1;exitY=0.5;exitDx=0;exitDy=0;entryX=0;entryY=0.5;entryDx=0;entryDy=0;" edge="1" parent="1" source="tKvllHDfNdYFgALGTKCt-34" target="tKvllHDfNdYFgALGTKCt-40">
          <mxGeometry relative="1" as="geometry" />
        </mxCell>
        <mxCell id="tKvllHDfNdYFgALGTKCt-34" value="" style="rhombus;whiteSpace=wrap;html=1;" vertex="1" parent="1">
          <mxGeometry x="310" y="560" width="80" height="50" as="geometry" />
        </mxCell>
        <mxCell id="tKvllHDfNdYFgALGTKCt-39" value="Повторить" style="text;html=1;strokeColor=none;fillColor=none;align=center;verticalAlign=middle;whiteSpace=wrap;rounded=0;" vertex="1" parent="1">
          <mxGeometry x="350" y="550" width="90" height="30" as="geometry" />
        </mxCell>
        <mxCell id="tKvllHDfNdYFgALGTKCt-43" style="edgeStyle=orthogonalEdgeStyle;rounded=0;orthogonalLoop=1;jettySize=auto;html=1;exitX=0.5;exitY=1;exitDx=0;exitDy=0;entryX=0.5;entryY=0;entryDx=0;entryDy=0;" edge="1" parent="1" source="tKvllHDfNdYFgALGTKCt-40" target="tKvllHDfNdYFgALGTKCt-42">
          <mxGeometry relative="1" as="geometry">
            <Array as="points">
              <mxPoint x="560" y="620" />
              <mxPoint x="350" y="620" />
            </Array>
          </mxGeometry>
        </mxCell>
        <mxCell id="tKvllHDfNdYFgALGTKCt-40" value="Сохранение нового расположения объектов" style="rounded=1;whiteSpace=wrap;html=1;arcSize=50;" vertex="1" parent="1">
          <mxGeometry x="480" y="565" width="160" height="40" as="geometry" />
        </mxCell>
        <mxCell id="tKvllHDfNdYFgALGTKCt-45" style="edgeStyle=orthogonalEdgeStyle;rounded=0;orthogonalLoop=1;jettySize=auto;html=1;entryX=1;entryY=0.5;entryDx=0;entryDy=0;" edge="1" parent="1" source="tKvllHDfNdYFgALGTKCt-42" target="tKvllHDfNdYFgALGTKCt-44">
          <mxGeometry relative="1" as="geometry" />
        </mxCell>
        <mxCell id="tKvllHDfNdYFgALGTKCt-42" value="Рендер полученной сцены в 3D" style="rounded=1;whiteSpace=wrap;html=1;arcSize=50;" vertex="1" parent="1">
          <mxGeometry x="280" y="640" width="140" height="40" as="geometry" />
        </mxCell>
        <mxCell id="tKvllHDfNdYFgALGTKCt-47" style="edgeStyle=orthogonalEdgeStyle;rounded=0;orthogonalLoop=1;jettySize=auto;html=1;entryX=0;entryY=0.5;entryDx=0;entryDy=0;" edge="1" parent="1" source="tKvllHDfNdYFgALGTKCt-44" target="tKvllHDfNdYFgALGTKCt-22">
          <mxGeometry relative="1" as="geometry">
            <Array as="points">
              <mxPoint x="90" y="660" />
              <mxPoint x="90" y="445" />
            </Array>
          </mxGeometry>
        </mxCell>
        <mxCell id="tKvllHDfNdYFgALGTKCt-48" value="Да" style="edgeLabel;html=1;align=center;verticalAlign=middle;resizable=0;points=[];" vertex="1" connectable="0" parent="tKvllHDfNdYFgALGTKCt-47">
          <mxGeometry x="-0.7601" y="1" relative="1" as="geometry">
            <mxPoint x="-1" as="offset" />
          </mxGeometry>
        </mxCell>
        <mxCell id="tKvllHDfNdYFgALGTKCt-52" style="edgeStyle=orthogonalEdgeStyle;rounded=0;orthogonalLoop=1;jettySize=auto;html=1;entryX=0.5;entryY=0;entryDx=0;entryDy=0;" edge="1" parent="1" source="tKvllHDfNdYFgALGTKCt-44" target="tKvllHDfNdYFgALGTKCt-50">
          <mxGeometry relative="1" as="geometry" />
        </mxCell>
        <mxCell id="tKvllHDfNdYFgALGTKCt-53" value="Нет" style="edgeLabel;html=1;align=center;verticalAlign=middle;resizable=0;points=[];" vertex="1" connectable="0" parent="tKvllHDfNdYFgALGTKCt-52">
          <mxGeometry x="-0.4362" relative="1" as="geometry">
            <mxPoint as="offset" />
          </mxGeometry>
        </mxCell>
        <mxCell id="tKvllHDfNdYFgALGTKCt-44" value="" style="rhombus;whiteSpace=wrap;html=1;" vertex="1" parent="1">
          <mxGeometry x="160" y="635" width="80" height="50" as="geometry" />
        </mxCell>
        <mxCell id="tKvllHDfNdYFgALGTKCt-46" value="Вернуться к ред." style="text;html=1;strokeColor=none;fillColor=none;align=center;verticalAlign=middle;whiteSpace=wrap;rounded=0;" vertex="1" parent="1">
          <mxGeometry x="190" y="620" width="90" height="30" as="geometry" />
        </mxCell>
        <mxCell id="tKvllHDfNdYFgALGTKCt-54" style="edgeStyle=orthogonalEdgeStyle;rounded=0;orthogonalLoop=1;jettySize=auto;html=1;exitX=1;exitY=0.5;exitDx=0;exitDy=0;entryX=0.5;entryY=1;entryDx=0;entryDy=0;" edge="1" parent="1" source="tKvllHDfNdYFgALGTKCt-50" target="tKvllHDfNdYFgALGTKCt-42">
          <mxGeometry relative="1" as="geometry" />
        </mxCell>
        <mxCell id="tKvllHDfNdYFgALGTKCt-55" value="Нет" style="edgeLabel;html=1;align=center;verticalAlign=middle;resizable=0;points=[];" vertex="1" connectable="0" parent="tKvllHDfNdYFgALGTKCt-54">
          <mxGeometry x="-0.5599" relative="1" as="geometry">
            <mxPoint as="offset" />
          </mxGeometry>
        </mxCell>
        <mxCell id="tKvllHDfNdYFgALGTKCt-57" style="edgeStyle=orthogonalEdgeStyle;rounded=0;orthogonalLoop=1;jettySize=auto;html=1;entryX=0;entryY=0.5;entryDx=0;entryDy=0;exitX=0.5;exitY=1;exitDx=0;exitDy=0;" edge="1" parent="1" source="tKvllHDfNdYFgALGTKCt-50" target="tKvllHDfNdYFgALGTKCt-56">
          <mxGeometry relative="1" as="geometry" />
        </mxCell>
        <mxCell id="tKvllHDfNdYFgALGTKCt-59" value="Да" style="edgeLabel;html=1;align=center;verticalAlign=middle;resizable=0;points=[];" vertex="1" connectable="0" parent="tKvllHDfNdYFgALGTKCt-57">
          <mxGeometry x="-0.4595" y="-2" relative="1" as="geometry">
            <mxPoint as="offset" />
          </mxGeometry>
        </mxCell>
        <mxCell id="tKvllHDfNdYFgALGTKCt-50" value="" style="rhombus;whiteSpace=wrap;html=1;" vertex="1" parent="1">
          <mxGeometry x="160" y="720" width="80" height="55" as="geometry" />
        </mxCell>
        <mxCell id="tKvllHDfNdYFgALGTKCt-51" value="Оформить заказ" style="text;html=1;strokeColor=none;fillColor=none;align=center;verticalAlign=middle;whiteSpace=wrap;rounded=0;" vertex="1" parent="1">
          <mxGeometry x="200" y="710" width="90" height="30" as="geometry" />
        </mxCell>
        <mxCell id="tKvllHDfNdYFgALGTKCt-65" style="edgeStyle=orthogonalEdgeStyle;rounded=0;orthogonalLoop=1;jettySize=auto;html=1;exitX=0.5;exitY=1;exitDx=0;exitDy=0;entryX=1;entryY=0.5;entryDx=0;entryDy=0;" edge="1" parent="1" source="tKvllHDfNdYFgALGTKCt-56" target="tKvllHDfNdYFgALGTKCt-62">
          <mxGeometry relative="1" as="geometry" />
        </mxCell>
        <mxCell id="tKvllHDfNdYFgALGTKCt-56" value="Оформление заказа" style="rounded=1;whiteSpace=wrap;html=1;arcSize=50;" vertex="1" parent="1">
          <mxGeometry x="480" y="760" width="160" height="40" as="geometry" />
        </mxCell>
        <mxCell id="tKvllHDfNdYFgALGTKCt-63" value="" style="group" vertex="1" connectable="0" parent="1">
          <mxGeometry x="105" y="815" width="50" height="50" as="geometry" />
        </mxCell>
        <mxCell id="tKvllHDfNdYFgALGTKCt-61" value="" style="ellipse;whiteSpace=wrap;html=1;aspect=fixed;fillColor=#000000;" vertex="1" parent="tKvllHDfNdYFgALGTKCt-63">
          <mxGeometry x="5" y="5" width="40" height="40" as="geometry" />
        </mxCell>
        <mxCell id="tKvllHDfNdYFgALGTKCt-62" value="" style="ellipse;whiteSpace=wrap;html=1;aspect=fixed;fillColor=none;" vertex="1" parent="tKvllHDfNdYFgALGTKCt-63">
          <mxGeometry width="50" height="50" as="geometry" />
        </mxCell>
      </root>
    </mxGraphModel>
  </diagram>
</mxfile>
